<svg width="320" height="200" viewBox="0 0 320 200" fill="none" xmlns="http://www.w3.org/2000/svg">
<path d="M8.19588 61.701C8.19588 63.299 8.78866 64.4588 9.97423 65.1804C11.1598 66.0567 13.6856 66.9588 17.5515 67.8866C21.6237 68.866 24.5876 70.2062 26.4433 71.9072C28.3505 73.6082 29.3041 76.0567 29.3041 79.2526C29.3041 82.6031 28.0412 85.3093 25.5155 87.3711C23.0412 89.433 19.7938 90.4639 15.7732 90.4639C9.94845 90.4639 4.69072 88.4021 0 84.2783L4.02062 79.4845C7.93814 82.835 11.9072 84.5103 15.9278 84.5103C17.9381 84.5103 19.5619 84.0722 20.799 83.1959C22.0361 82.268 22.6546 81.0825 22.6546 79.6392C22.6546 78.1959 22.0876 77.0618 20.9536 76.2371C19.8711 75.4124 17.9124 74.6649 15.0773 73.9948C10.1804 72.8608 6.77835 71.5206 4.87113 69.9742C2.65464 68.2732 1.54639 65.6701 1.54639 62.1649C1.54639 58.7629 2.78351 56.1082 5.25773 54.201C7.73196 52.2423 10.9021 51.2629 14.768 51.2629C19.9742 51.2629 24.433 52.7835 28.1443 55.8247L24.7423 60.6185C23.6082 59.5876 22.0876 58.7629 20.1804 58.1443C18.2732 57.4742 16.3918 57.1392 14.5361 57.1392C12.6289 57.1392 11.0825 57.5515 9.89691 58.3763C8.76289 59.1495 8.19588 60.2577 8.19588 61.701Z" fill="black"/>
<path d="M42.4041 90H36.3731V49.8711H42.4041V66.4175C43.2803 64.6649 44.5948 63.299 46.3474 62.3196C48.0999 61.2887 49.9814 60.7732 51.9917 60.7732C55.3422 60.7732 57.9968 61.7783 59.9556 63.7887C61.9144 65.799 62.8937 68.6598 62.8937 72.3711V90H56.7855V74.2268C56.7855 68.9175 54.5948 66.2629 50.2133 66.2629C47.9968 66.2629 46.1412 66.9845 44.6463 68.4278C43.1515 69.8196 42.4041 71.8041 42.4041 74.3814V90Z" fill="black"/>
<path d="M91.4127 61.2371H97.521V90H91.4127V84.7423C90.4334 86.4948 89.0674 87.8866 87.3148 88.9175C85.6138 89.9484 83.7839 90.4639 81.8251 90.4639C78.5261 90.4639 75.8973 89.4588 73.9385 87.4484C71.9798 85.4381 71.0004 82.5773 71.0004 78.866V61.2371H77.0313V77.0103C77.0313 82.3196 79.222 84.9742 83.6035 84.9742C85.82 84.9742 87.6756 84.2526 89.1705 82.8093C90.6653 81.366 91.4127 79.3557 91.4127 76.7783V61.2371Z" fill="black"/>
<path d="M113.669 66.1082V80.7216C113.669 82.1134 114.03 83.2216 114.751 84.0464C115.525 84.8196 116.555 85.2062 117.844 85.2062C119.03 85.2062 120.267 84.5618 121.555 83.2732L124.03 87.6031C121.865 89.5103 119.519 90.4639 116.994 90.4639C114.365 90.4639 112.148 89.5618 110.344 87.7577C108.54 85.9021 107.638 83.5051 107.638 80.567V66.1082H104.004V61.2371H107.638V52.1907H113.669V61.2371H121.246V66.1082H113.669Z" fill="black"/>
<path d="M136.301 66.1082V80.7216C136.301 82.1134 136.662 83.2216 137.383 84.0464C138.156 84.8196 139.187 85.2062 140.476 85.2062C141.662 85.2062 142.899 84.5618 144.187 83.2732L146.662 87.6031C144.497 89.5103 142.151 90.4639 139.625 90.4639C136.997 90.4639 134.78 89.5618 132.976 87.7577C131.172 85.9021 130.27 83.5051 130.27 80.567V66.1082H126.636V61.2371H130.27V52.1907H136.301V61.2371H143.878V66.1082H136.301Z" fill="black"/>
<path d="M157.541 90H151.51V49.8711H157.541V90Z" fill="black"/>
<path d="M193.131 78.2474H170.553C170.708 80.3093 171.662 81.9845 173.414 83.2732C175.167 84.5618 177.203 85.2062 179.522 85.2062C183.182 85.2062 185.914 84.0722 187.718 81.8041L191.198 85.5928C188.105 88.8402 184.058 90.4639 179.058 90.4639C174.935 90.4639 171.481 89.0979 168.698 86.366C165.914 83.634 164.522 80.0258 164.522 75.5412C164.522 71.1598 165.94 67.6031 168.775 64.8711C171.61 62.1392 175.038 60.7732 179.058 60.7732C183.079 60.7732 186.43 61.9845 189.11 64.4072C191.79 66.8299 193.131 70.0515 193.131 74.0722V78.2474ZM187.1 73.4536C187.1 71.134 186.352 69.3041 184.857 67.9639C183.414 66.6237 181.533 65.9536 179.213 65.9536C176.893 65.9536 174.857 66.6495 173.105 68.0412C171.404 69.433 170.553 71.2371 170.553 73.4536H187.1Z" fill="black"/>
<path d="M112.505 134.418L108.716 143H101.912L118.613 105.191H125.417L142.041 143H135.237L131.448 134.418H112.505ZM128.897 128.464L122.015 112.923L115.134 128.464H128.897Z" fill="black"/>
<path d="M152.487 130.629V143H146.456V114.237H152.487V119.959C153.466 118.155 154.781 116.686 156.43 115.552C158.131 114.418 159.91 113.825 161.765 113.773L161.843 119.881H161.533C158.595 119.881 156.353 120.835 154.807 122.742C153.26 124.649 152.487 127.278 152.487 130.629Z" fill="black"/>
<path d="M165.983 128.619C165.983 124.289 167.478 120.732 170.468 117.948C173.457 115.165 177.143 113.773 181.524 113.773C185.854 113.773 189.514 115.268 192.504 118.258L188.947 122.665C186.473 120.5 183.973 119.418 181.447 119.418C178.87 119.418 176.653 120.268 174.798 121.969C172.993 123.619 172.091 125.758 172.091 128.387C172.091 131.067 172.993 133.335 174.798 135.191C176.653 136.995 178.921 137.897 181.602 137.897C184.282 137.897 186.834 136.686 189.256 134.263L192.813 138.129C189.153 141.686 185.107 143.464 180.674 143.464C176.55 143.464 173.071 142.098 170.236 139.366C167.401 136.582 165.983 133 165.983 128.619Z" fill="black"/>
<path d="M159.527 200C143.019 200 148.366 198.528 163.964 194.233C165.372 193.845 166.863 193.435 168.43 193H204.804C188.283 197.517 172.513 200 159.527 200Z" fill="#FC452E"/>
<path d="M218.023 189C225.858 186.403 233.74 183.387 241.462 180H209.435C199.895 183.556 190.642 186.529 182.373 189H218.023Z" fill="#FC452E"/>
<path d="M181.531 180C170.518 182.544 160.132 183.916 151.287 183.916C138.771 183.916 141.293 182.886 151.621 180H181.531Z" fill="#FC452E"/>
<path d="M219.646 176H250.142C255.929 173.201 261.576 170.194 266.993 167H239.197C232.808 170.3 226.218 173.292 219.646 176Z" fill="#FC452E"/>
<path d="M220.359 167C212.436 170.49 204.306 173.514 196.288 176H165.898C173.984 173.661 183.541 170.703 193.46 167H220.359Z" fill="#FC452E"/>
<path d="M246.561 163H273.499C277.977 160.128 282.257 157.123 286.28 154H260.589C256.164 157.207 251.452 160.203 246.561 163Z" fill="#FC452E"/>
<path d="M245.136 154C239.986 157.215 234.541 160.224 228.926 163H203.562C209.92 160.327 216.273 157.338 222.34 154H245.136Z" fill="#FC452E"/>
<path d="M265.816 150H291.21C308.544 135.291 320 118.214 320 100C320 76.1205 300.31 54.1959 273.499 37H245.653C271.859 51.8958 293.165 72.3938 293.165 100.35C293.165 120.62 281.964 136.927 265.816 150Z" fill="#FC452E"/>
<path d="M227.498 37C259.101 52.325 285.663 75.0214 285.663 100.35C285.663 118.943 271.349 136.118 251.234 150H229.185C248.639 137.904 263.665 121.757 263.665 100.35C263.665 69.5371 232.536 49.6236 201.881 37H227.498Z" fill="#FC452E"/>
<path d="M238.251 33H266.993C261.576 29.8062 255.928 26.7994 250.141 24H218.658C225.233 26.7096 231.838 29.7013 238.251 33Z" fill="#FC452E"/>
<path d="M193.989 24C202.209 26.4506 210.58 29.4761 218.754 33H191.567C181.318 29.2516 171.535 26.2989 163.461 24H193.989Z" fill="#FC452E"/>
<path d="M178.381 20H149.15C140.972 17.6449 139.84 16.7832 151.287 16.7832C159.284 16.7832 168.54 17.9051 178.381 20Z" fill="#FC452E"/>
<path d="M208.46 20H241.462C233.74 16.6125 225.858 13.5973 218.023 11H181.566C189.758 13.4742 198.954 16.448 208.46 20Z" fill="#FC452E"/>
<path d="M167.811 7C166.591 6.65552 165.418 6.32601 164.297 6.01099C148.443 1.55675 142.902 0 159.527 0C172.513 0 188.283 2.4827 204.804 7H167.811Z" fill="#FC452E"/>
<path d="M169.21 33C159.394 30.6457 150.12 29.3706 142.275 29.3706C131.235 29.3706 133.774 30.3173 143.115 33H169.21Z" fill="#FC452E"/>
<path d="M183.274 37H156.816C186.194 45.9765 234.833 64.4572 234.833 100.35C234.833 123.363 214.837 139.218 192.744 150H214.922C238.05 137.2 256.231 119.677 256.231 100.35C256.231 72.6803 218.968 48.7087 183.274 37Z" fill="#FC452E"/>
<path d="M207.227 154H183.947C175.27 157.684 166.631 160.643 159.081 163H185.365C192.731 160.489 200.132 157.464 207.227 154Z" fill="#FC452E"/>
<path d="M172.019 167H145.559C145.488 167.02 145.416 167.041 145.345 167.061C134.236 170.234 130.401 171.329 142.275 171.329C150.864 171.329 161.167 169.8 172.019 167Z" fill="#FC452E"/>
</svg>
